# xmcd
#
# Track frame offsets: 
#        150
#        31143
#        63505
#        89243
#        130127
#        162270
#        183189
#        228392
#
# Disc length: 3692 seconds
#
# Revision: 2
# Processed by: cddbd v1.5.2PL0 Copyright (c) Steve Scherf et al.
# Submitted via: ExactAudioCopy v0.95b4
#
DISCID=650e6a08
DTITLE=Hiromi - Brain
DYEAR=2004
DGENRE=Jazz
TTITLE0=Kung-Fu World Champion
TTITLE1=If...
TTITLE2=Wind Song
TTITLE3=Brain
TTITLE4=Desert on the Moon
TTITLE5=Green Tea Farm
TTITLE6=Keytalk
TTITLE7=Legend of the Purple Valley
EXTD=YEAR: 2004
EXTT0=
EXTT1=
EXTT2=
EXTT3=
EXTT4=
EXTT5=
EXTT6=
EXTT7=
PLAYORDER=
